# xmcd
#
# Track frame offsets:
#	150
#	6111
#	23977
#	37482
#	53129
#	64344
#	80237
#	94732
#	113484
#	132926
#	153768
#
# Disc length: 2270 seconds
#
# Revision: 0
# Processed by: cddbd v1.4PL0 Copyright (c) Steve Scherf et al.
# Submitted via: dBpowerAMP V4.0
#
DISCID=8f08dc0b
DTITLE=Xoyo - En Defensa Propia
DYEAR=2003
DGENRE=Hip-Hop
TTITLE0=intro
TTITLE1=Deja de pensartelo
TTITLE2=En defensa propia
TTITLE3=El rap que yo siento
TTITLE4=Son noches con Moli
TTITLE5=Siempre igual
TTITLE6=Aire con Pit3r
TTITLE7=Transparenciah con Anusky mist
TTITLE8=Resurgir con Pit3r (instrumental)
TTITLE9=Detras de la cortina
TTITLE10=outro
EXTD=
EXTT0=
EXTT1=
EXTT2=
EXTT3=
EXTT4=
EXTT5=
EXTT6=
EXTT7=
EXTT8=
EXTT9=
EXTT10=
PLAYORDER=
